<svg width="43" height="43" viewBox="0 0 43 43" fill="none" xmlns="http://www.w3.org/2000/svg">
<g id="Vector" filter="url(#filter0_d_261_1319)">
<path d="M38.6056 22.0778L34.9615 18.8107V14.4828C34.9574 11.4919 33.7164 8.60861 31.4785 6.3905C29.2407 4.17238 26.165 2.77699 22.8462 2.47414V0H20.1538V2.47414C16.835 2.77699 13.7593 4.17238 11.5215 6.3905C9.28362 8.60861 8.04264 11.4919 8.03846 14.4828V18.8107L4.39442 22.0778C4.14195 22.304 4.00008 22.611 4 22.931V26.5517C4 26.8718 4.14183 27.1788 4.39428 27.4051C4.64673 27.6315 4.98913 27.7586 5.34615 27.7586H14.7692V28.9655C14.7692 30.566 15.4784 32.1009 16.7406 33.2325C18.0029 34.3642 19.7149 35 21.5 35C23.2851 35 24.9971 34.3642 26.2594 33.2325C27.5216 32.1009 28.2308 30.566 28.2308 28.9655V27.7586H37.6538C38.0109 27.7586 38.3533 27.6315 38.6057 27.4051C38.8582 27.1788 39 26.8718 39 26.5517V22.931C38.9999 22.611 38.8581 22.304 38.6056 22.0778ZM25.5385 28.9655C25.5385 29.9258 25.113 30.8467 24.3556 31.5257C23.5983 32.2047 22.5711 32.5862 21.5 32.5862C20.4289 32.5862 19.4017 32.2047 18.6444 31.5257C17.887 30.8467 17.4615 29.9258 17.4615 28.9655V27.7586H25.5385V28.9655Z" fill="white"/>
<path d="M38.2718 22.45L38.2719 22.4501C38.4256 22.5879 38.4999 22.7623 38.5 22.931C38.5 22.9311 38.5 22.9311 38.5 22.9312V26.5517C38.5 26.7205 38.4257 26.895 38.2719 27.0328C38.1164 27.1723 37.8948 27.2586 37.6538 27.2586H28.2308H27.7308V27.7586V28.9655C27.7308 30.4146 27.0892 31.8171 25.9256 32.8603C24.7602 33.9051 23.1691 34.5 21.5 34.5C19.8309 34.5 18.2398 33.9051 17.0744 32.8603C15.9108 31.8171 15.2692 30.4146 15.2692 28.9655V27.7586V27.2586H14.7692H5.34615C5.10518 27.2586 4.8836 27.1723 4.72805 27.0328C4.5743 26.895 4.5 26.7205 4.5 26.5517V22.9312C4.5 22.9311 4.5 22.9311 4.5 22.931C4.50007 22.7623 4.57441 22.5879 4.72814 22.4501L4.7282 22.45L8.37223 19.183L8.53846 19.0339V18.8107L8.53846 14.4835C8.53846 14.4833 8.53846 14.4832 8.53846 14.4831C8.54253 11.6332 9.72462 8.8755 11.8734 6.74561C14.0238 4.61422 16.9889 3.26502 20.1993 2.97207L20.6538 2.93059V2.47414V0.5H22.3462V2.47414V2.93059L22.8007 2.97207C26.0111 3.26502 28.9762 4.61422 31.1266 6.74561C33.2755 8.87558 34.4576 11.6334 34.4615 14.4835V18.8107V19.0339L34.6278 19.183L38.2718 22.45ZM17.4615 27.2586H16.9615V27.7586V28.9655C16.9615 30.0771 17.4545 31.1305 18.3106 31.898C19.1649 32.6639 20.3129 33.0862 21.5 33.0862C22.6871 33.0862 23.8351 32.6639 24.6894 31.898C25.5455 31.1305 26.0385 30.0771 26.0385 28.9655V27.7586V27.2586H25.5385H17.4615Z" stroke="black"/>
</g>
<defs>
<filter id="filter0_d_261_1319" x="0" y="0" width="43" height="43" filterUnits="userSpaceOnUse" color-interpolation-filters="sRGB">
<feFlood flood-opacity="0" result="BackgroundImageFix"/>
<feColorMatrix in="SourceAlpha" type="matrix" values="0 0 0 0 0 0 0 0 0 0 0 0 0 0 0 0 0 0 127 0" result="hardAlpha"/>
<feOffset dy="4"/>
<feGaussianBlur stdDeviation="2"/>
<feComposite in2="hardAlpha" operator="out"/>
<feColorMatrix type="matrix" values="0 0 0 0 0 0 0 0 0 0 0 0 0 0 0 0 0 0 0.25 0"/>
<feBlend mode="normal" in2="BackgroundImageFix" result="effect1_dropShadow_261_1319"/>
<feBlend mode="normal" in="SourceGraphic" in2="effect1_dropShadow_261_1319" result="shape"/>
</filter>
</defs>
</svg>
